<svg width="11" height="10" viewBox="0 0 11 10" fill="none" xmlns="http://www.w3.org/2000/svg">
<path d="M5.93164 0C6.11927 0 6.29921 0.065848 6.43188 0.183058C6.56455 0.300269 6.63908 0.45924 6.63908 0.625V3.9175L9.86642 2.27125C9.9469 2.22956 10.0359 2.20235 10.1284 2.19119C10.2208 2.18002 10.3148 2.18512 10.405 2.20619C10.4952 2.22726 10.5798 2.26388 10.6539 2.31395C10.728 2.36401 10.7902 2.42654 10.8369 2.49792C10.8835 2.5693 10.9137 2.64813 10.9257 2.72987C10.9378 2.81161 10.9314 2.89464 10.9069 2.97418C10.8825 3.05373 10.8405 3.12822 10.7833 3.19336C10.7261 3.2585 10.655 3.31301 10.5739 3.35375L7.34652 5L10.5739 6.64625C10.655 6.68699 10.7261 6.7415 10.7833 6.80664C10.8405 6.87178 10.8825 6.94627 10.9069 7.02582C10.9314 7.10536 10.9378 7.18839 10.9257 7.27013C10.9137 7.35187 10.8835 7.4307 10.8369 7.50208C10.7902 7.57346 10.728 7.63599 10.6539 7.68605C10.5798 7.73612 10.4952 7.77274 10.405 7.79381C10.3148 7.81488 10.2208 7.81998 10.1284 7.80881C10.0359 7.79765 9.9469 7.77044 9.86642 7.72875L6.63908 6.0825V9.375C6.63908 9.54076 6.56455 9.69973 6.43188 9.81694C6.29921 9.93415 6.11927 10 5.93164 10C5.74402 10 5.56408 9.93415 5.43141 9.81694C5.29874 9.69973 5.2242 9.54076 5.2242 9.375V6.0825L1.99686 7.72875C1.91638 7.77044 1.82735 7.79765 1.73492 7.80881C1.64248 7.81998 1.54846 7.81488 1.45826 7.79381C1.36806 7.77274 1.28347 7.73612 1.20936 7.68605C1.13524 7.63599 1.07307 7.57346 1.02642 7.50208C0.979774 7.4307 0.949567 7.35187 0.937542 7.27013C0.925516 7.18839 0.93191 7.10536 0.956355 7.02582C0.980799 6.94627 1.02281 6.87178 1.07997 6.80664C1.13714 6.7415 1.20832 6.68699 1.28942 6.64625L4.51676 5L1.28942 3.35375C1.12826 3.27028 1.01102 3.13388 0.963268 2.97432C0.915519 2.81476 0.941144 2.645 1.03455 2.50207C1.12796 2.35914 1.28157 2.25465 1.46185 2.21141C1.64214 2.16816 1.83447 2.18968 1.99686 2.27125L5.2242 3.9175V0.625C5.2242 0.45924 5.29874 0.300269 5.43141 0.183058C5.56408 0.065848 5.74402 0 5.93164 0Z" fill="#909191"/>
</svg>
