<svg width="15" height="12" viewBox="0 0 15 12" fill="none" xmlns="http://www.w3.org/2000/svg">
<path d="M13.7319 1.20998C13.639 1.11625 13.5284 1.04186 13.4065 0.991091C13.2846 0.940323 13.1539 0.914185 13.0219 0.914185C12.8899 0.914185 12.7592 0.940323 12.6373 0.991091C12.5155 1.04186 12.4049 1.11625 12.3119 1.20998L4.86192 8.66998L1.73192 5.52998C1.6354 5.43674 1.52146 5.36343 1.3966 5.31423C1.27175 5.26502 1.13843 5.24089 1.00424 5.24321C0.870064 5.24554 0.737655 5.27426 0.614576 5.32776C0.491498 5.38125 0.380161 5.45846 0.286922 5.55498C0.193684 5.6515 0.12037 5.76545 0.0711659 5.8903C0.0219619 6.01516 -0.00216855 6.14848 0.000152918 6.28266C0.00247438 6.41684 0.0312022 6.54925 0.0846957 6.67233C0.138189 6.79541 0.215401 6.90674 0.311922 6.99998L4.15192 10.84C4.24489 10.9337 4.35549 11.0081 4.47735 11.0589C4.59921 11.1096 4.72991 11.1358 4.86192 11.1358C4.99393 11.1358 5.12464 11.1096 5.2465 11.0589C5.36836 11.0081 5.47896 10.9337 5.57192 10.84L13.7319 2.67998C13.8334 2.58634 13.9144 2.47269 13.9698 2.34619C14.0252 2.21969 14.0539 2.08308 14.0539 1.94498C14.0539 1.80688 14.0252 1.67028 13.9698 1.54378C13.9144 1.41728 13.8334 1.30363 13.7319 1.20998V1.20998Z" fill="white"/>
</svg>
