<svg width="18" height="18" viewBox="0 0 18 18" fill="none" xmlns="http://www.w3.org/2000/svg">
<path d="M16.9351 4.54244L16.9302 4.52263C16.5294 2.90234 14.7225 1.16374 13.0631 0.802046L13.0445 0.798179C10.3605 0.286187 7.63912 0.286187 4.95576 0.798179L4.93648 0.802046C3.2777 1.16374 1.47072 2.90246 1.06941 4.52263L1.06496 4.54244C0.569492 6.80515 0.569492 9.09992 1.06496 11.3626L1.06941 11.3824C1.45367 12.9335 3.126 14.5923 4.72344 15.0485V16.8571C4.72344 17.5118 5.52119 17.8333 5.97482 17.3609L7.80734 15.4561C8.20484 15.4783 8.60252 15.4907 9.00008 15.4907C10.3511 15.4907 11.7027 15.3629 13.0444 15.1069L13.0631 15.1031C14.7225 14.7414 16.5294 13.0027 16.9302 11.3825L16.9351 11.3627C17.4305 9.09992 17.4305 6.80527 16.9351 4.54244ZM15.4849 11.0346C15.2173 12.0917 13.8454 13.4058 12.7553 13.6486C11.3282 13.92 9.88982 14.036 8.45287 13.9962C8.42428 13.9954 8.3968 14.0065 8.37693 14.027C8.17297 14.2363 7.03895 15.4006 7.03895 15.4006L5.61582 16.8612C5.51176 16.9697 5.32895 16.8958 5.32895 16.7461V13.7499C5.32895 13.7003 5.29361 13.6583 5.24498 13.6487C5.24469 13.6486 5.24445 13.6486 5.24416 13.6486C4.15408 13.4057 2.78264 12.0916 2.51457 11.0345C2.06861 8.98923 2.06861 6.91583 2.51457 4.87056C2.78264 3.81347 4.15408 2.49933 5.24416 2.25652C7.7365 1.78249 10.2635 1.78249 12.7554 2.25652C13.846 2.49933 15.2173 3.81347 15.4849 4.87056C15.9314 6.91589 15.9314 8.98929 15.4849 11.0346Z" fill="white"/>
<path d="M11.3714 12.4176C11.2038 12.3667 11.0441 12.3325 10.8957 12.2711C9.35875 11.6334 7.9443 10.8107 6.82392 9.54973C6.18678 8.83266 5.68809 8.02307 5.26656 7.16631C5.06664 6.76002 4.89818 6.33785 4.72644 5.91832C4.56988 5.53582 4.80051 5.14067 5.04332 4.85238C5.27119 4.58186 5.56445 4.3749 5.88203 4.22227C6.12988 4.1032 6.37433 4.17188 6.55539 4.38193C6.94668 4.83615 7.30621 5.31358 7.59719 5.8401C7.77619 6.16395 7.72709 6.55981 7.40266 6.78018C7.32379 6.83373 7.25195 6.89666 7.17853 6.95713C7.11408 7.01016 7.05349 7.06371 7.00932 7.13549C6.92863 7.2668 6.92476 7.42178 6.97668 7.56457C7.3767 8.66385 8.05094 9.51873 9.15748 9.97922C9.33455 10.0529 9.51232 10.1386 9.71635 10.1149C10.0579 10.075 10.1686 9.7002 10.408 9.50444C10.642 9.31313 10.941 9.31061 11.193 9.4701C11.4452 9.62971 11.6895 9.80092 11.9324 9.97406C12.1709 10.144 12.4083 10.3101 12.6282 10.5039C12.8397 10.6901 12.9125 10.9345 12.7934 11.1872C12.5754 11.6501 12.2581 12.0352 11.8006 12.281C11.6714 12.3503 11.517 12.3727 11.3714 12.4176C11.517 12.3727 11.2038 12.3667 11.3714 12.4176Z" fill="white"/>
<path d="M9.00414 3.69293C11.0144 3.7493 12.6657 5.08342 13.0195 7.07092C13.0798 7.40959 13.1012 7.75577 13.1281 8.09953C13.1394 8.24409 13.0575 8.38143 12.9015 8.38336C12.7404 8.3853 12.6679 8.25041 12.6573 8.10598C12.6367 7.81993 12.6223 7.53252 12.5829 7.24893C12.3748 5.75133 11.1807 4.51237 9.69004 4.24653C9.46568 4.20651 9.23623 4.19602 9.00894 4.17217C8.86533 4.15711 8.67724 4.14844 8.64543 3.96985C8.61877 3.82014 8.74509 3.70096 8.88765 3.69329C8.92627 3.691 8.96523 3.69282 9.00414 3.69293C11.0145 3.7493 8.96523 3.69282 9.00414 3.69293Z" fill="white"/>
<path d="M12.0593 7.65348C12.0559 7.67862 12.0542 7.73762 12.0395 7.79317C11.9861 7.99496 11.6801 8.02022 11.6097 7.8166C11.5888 7.75619 11.5857 7.68741 11.5855 7.62237C11.5848 7.19662 11.4923 6.77123 11.2776 6.40075C11.0568 6.01994 10.7196 5.69996 10.3241 5.50619C10.085 5.38912 9.82638 5.31629 9.56423 5.27299C9.44968 5.25401 9.3339 5.24258 9.21876 5.22653C9.07925 5.20713 9.00472 5.11824 9.0114 4.98078C9.01755 4.85199 9.11171 4.75924 9.2521 4.76727C9.71341 4.7934 10.1591 4.89325 10.5693 5.11039C11.4033 5.55213 11.8798 6.24928 12.0189 7.18028C12.0252 7.22252 12.0352 7.26424 12.0385 7.30655C12.0463 7.41096 12.0513 7.51555 12.0593 7.65348C12.0559 7.6785 12.0513 7.51555 12.0593 7.65348Z" fill="white"/>
<path d="M10.8089 7.60478C10.6407 7.60783 10.5507 7.51467 10.5333 7.36056C10.5213 7.2531 10.5117 7.14412 10.486 7.03947C10.4355 6.83339 10.326 6.6425 10.1527 6.51623C10.0709 6.45664 9.97813 6.41322 9.88104 6.38509C9.7577 6.34941 9.6295 6.35926 9.50651 6.32914C9.37286 6.29638 9.29891 6.1881 9.31995 6.06277C9.33905 5.94863 9.45003 5.85957 9.57477 5.86865C10.3542 5.9249 10.9112 6.32785 10.9908 7.24543C10.9964 7.31017 11.003 7.37855 10.9886 7.4406C10.9639 7.54648 10.8854 7.59963 10.8089 7.60478C10.8854 7.59963 10.6407 7.60777 10.8089 7.60478Z" fill="white"/>
</svg>
