<svg width="26" height="26" viewBox="0 0 26 26" fill="none" xmlns="http://www.w3.org/2000/svg">
<path d="M11.0435 2.02155C11.6593 0.126282 14.3406 0.126279 14.9564 2.02155L16.5794 7.01643C16.8548 7.86402 17.6446 8.43788 18.5358 8.43788H23.7878C25.7806 8.43788 26.6091 10.9879 24.9969 12.1593L20.748 15.2463C20.027 15.7701 19.7253 16.6987 20.0007 17.5462L21.6237 22.5411C22.2395 24.4364 20.0703 26.0124 18.458 24.8411L14.2091 21.7541C13.4881 21.2302 12.5118 21.2302 11.7908 21.7541L7.54193 24.8411C5.92972 26.0124 3.7605 24.4364 4.37631 22.5411L5.99925 17.5462C6.27465 16.6987 5.97295 15.7701 5.25195 15.2463L1.00305 12.1593C-0.60916 10.9879 0.219406 8.43788 2.21221 8.43788H7.46414C8.35534 8.43788 9.1452 7.86402 9.4206 7.01643L11.0435 2.02155Z" fill="#FFA928"/>
</svg>
