<svg width="21" height="20" viewBox="0 0 21 20" fill="none" xmlns="http://www.w3.org/2000/svg">
<path d="M20.4999 14.9199V17.9199C20.5011 18.1984 20.444 18.474 20.3325 18.7292C20.2209 18.9844 20.0572 19.2134 19.852 19.4017C19.6468 19.59 19.4045 19.7333 19.1407 19.8226C18.8769 19.9118 18.5973 19.9449 18.3199 19.9199C15.2428 19.5855 12.2869 18.534 9.68994 16.8499C7.27376 15.3145 5.22527 13.266 3.68993 10.8499C1.99991 8.24106 0.948176 5.27085 0.619933 2.17985C0.594944 1.90332 0.627808 1.62461 0.716434 1.36148C0.805059 1.09834 0.947504 0.856542 1.1347 0.651474C1.32189 0.446406 1.54974 0.282562 1.80372 0.170375C2.05771 0.0581874 2.33227 0.000114291 2.60993 -0.000147188H5.60994C6.09524 -0.00492363 6.56573 0.166931 6.9337 0.483385C7.30167 0.799839 7.54201 1.2393 7.60994 1.71985C7.73656 2.67992 7.97139 3.62258 8.30994 4.52985C8.44448 4.88778 8.4736 5.27677 8.39384 5.65073C8.31409 6.0247 8.1288 6.36796 7.85994 6.63985L6.58994 7.90985C8.01349 10.4134 10.0864 12.4863 12.5899 13.9099L13.8599 12.6399C14.1318 12.371 14.4751 12.1857 14.8491 12.1059C15.223 12.0262 15.612 12.0553 15.9699 12.1899C16.8772 12.5284 17.8199 12.7632 18.7799 12.8899C19.2657 12.9584 19.7093 13.2031 20.0265 13.5773C20.3436 13.9516 20.5121 14.4294 20.4999 14.9199Z" fill="#15B2F5"/>
</svg>
