<svg width="2028" height="2027" viewBox="0 0 2028 2027" fill="none" xmlns="http://www.w3.org/2000/svg">
<g opacity="0.05" clip-path="url(#clip0_108_108)">
<mask id="mask0_108_108" style="mask-type:luminance" maskUnits="userSpaceOnUse" x="0" y="49" width="1977" height="1978">
<path d="M1003.49 49.8814L1976.57 1053.14L973.428 2026.12L0.340932 1022.86L1003.49 49.8814Z" fill="white"/>
</mask>
<g mask="url(#mask0_108_108)">
<path d="M1877.04 973.599C1885.33 982.241 1883.9 993.773 1873.84 998.947C1767.31 1053.85 1662.77 1078.02 1559.54 1082.19C1549.8 1082.57 1538.01 1074.93 1533.2 1065.35C1497.18 994.022 1461.16 922.674 1425.14 851.335C1420.35 841.755 1422.28 833.877 1429.48 833.596C1506.4 830.491 1584.3 812.484 1663.69 771.574C1671.13 767.745 1683.9 771.419 1692.22 780.07C1753.83 844.578 1815.43 909.091 1877.04 973.599ZM1932.97 1049.72C1934.83 1051.69 1934.36 1054.37 1931.94 1055.63C1922.72 1060.42 1913.53 1065.01 1904.36 1069.4C1901.93 1070.54 1898.51 1069.82 1896.74 1067.82C1885.69 1055.28 1874.65 1042.75 1863.61 1030.23C1861.85 1028.25 1862.29 1025.72 1864.59 1024.62C1873.34 1020.45 1882.1 1016.07 1890.87 1011.5C1893.19 1010.29 1896.58 1010.9 1898.42 1012.86C1909.93 1025.15 1921.44 1037.44 1932.97 1049.72ZM1846.03 1089.58C1847.7 1091.64 1847.11 1094.09 1844.71 1095.02C1835.59 1098.5 1826.48 1101.79 1817.39 1104.91C1814.99 1105.73 1811.73 1104.67 1810.14 1102.58C1800.23 1089.6 1790.31 1076.62 1780.39 1063.65C1778.82 1061.58 1779.38 1059.26 1781.66 1058.49C1790.33 1055.53 1799.02 1052.38 1807.72 1049.05C1810 1048.18 1813.23 1049.13 1814.88 1051.16C1825.27 1063.97 1835.65 1076.77 1846.03 1089.58ZM1759.85 1117.55C1761.34 1119.68 1760.65 1121.9 1758.26 1122.51C1749.21 1124.83 1740.16 1126.95 1731.13 1128.91C1728.79 1129.42 1725.7 1128.08 1724.28 1125.95C1715.48 1112.67 1706.69 1099.38 1697.89 1086.1C1696.5 1084 1697.2 1081.87 1699.42 1081.37C1708.04 1079.51 1716.66 1077.47 1725.29 1075.27C1727.54 1074.7 1730.59 1075.95 1732.07 1078.05C1741.32 1091.22 1750.59 1104.38 1759.85 1117.55ZM1674.39 1134.79C1675.7 1136.94 1674.84 1138.98 1672.52 1139.3C1663.54 1140.55 1654.55 1141.63 1645.59 1142.56C1643.23 1142.81 1640.34 1141.23 1639.09 1139.06C1631.4 1125.61 1623.72 1112.16 1616.04 1098.7C1614.82 1096.57 1615.6 1094.62 1617.85 1094.39C1626.4 1093.5 1634.96 1092.47 1643.52 1091.28C1645.73 1090.97 1648.65 1092.47 1649.95 1094.6C1658.1 1108 1666.24 1121.39 1674.39 1134.79ZM1589.56 1142.44C1590.67 1144.61 1589.71 1146.47 1587.35 1146.55C1578.45 1146.85 1569.53 1147 1560.64 1147.04C1558.29 1147.04 1555.53 1145.26 1554.46 1143.09C1547.89 1129.59 1541.3 1116.08 1534.71 1102.58C1533.68 1100.43 1534.63 1098.66 1536.86 1098.66C1545.34 1098.63 1553.83 1098.47 1562.33 1098.19C1564.57 1098.11 1567.31 1099.82 1568.43 1101.96C1575.48 1115.45 1582.51 1128.95 1589.56 1142.44ZM1513.31 1065.49C1517.98 1075.04 1513.88 1082.82 1504.19 1082.57C1401.41 1079.91 1299.78 1059.19 1198.65 1031.18C1189.1 1028.53 1180.32 1018.98 1179.07 1009.98C1169.4 942.758 1159.74 875.552 1150.07 808.325C1148.8 799.312 1153.5 793.629 1160.55 795.587C1235.92 816.459 1311.64 831.902 1388.23 833.88C1395.41 834.063 1405.01 841.862 1409.7 851.428C1444.24 922.777 1478.78 994.13 1513.31 1065.49ZM1505.27 1141.71C1506.23 1143.88 1505.11 1145.55 1502.78 1145.4C1493.92 1144.89 1485.06 1144.25 1476.21 1143.5C1473.89 1143.31 1471.26 1141.36 1470.39 1139.2C1464.9 1125.74 1459.41 1112.29 1453.91 1098.84C1453.05 1096.71 1454.15 1095.1 1456.36 1095.29C1464.78 1096 1473.23 1096.6 1481.68 1097.1C1483.9 1097.24 1486.49 1099.11 1487.44 1101.24C1493.38 1114.73 1499.33 1128.21 1505.27 1141.71ZM1421.43 1133.73C1422.21 1135.87 1420.97 1137.38 1418.66 1137.06C1409.84 1135.84 1401.03 1134.53 1392.21 1133.13C1389.91 1132.76 1387.46 1130.7 1386.74 1128.56C1382.34 1115.24 1377.94 1101.93 1373.55 1088.61C1372.86 1086.51 1374.07 1085.04 1376.26 1085.39C1384.66 1086.73 1393.06 1088 1401.48 1089.15C1403.69 1089.45 1406.1 1091.45 1406.87 1093.56C1411.72 1106.96 1416.58 1120.34 1421.43 1133.73ZM1338 1119.68C1338.62 1121.8 1337.23 1123.15 1334.95 1122.69C1326.15 1120.9 1317.37 1119.04 1308.6 1117.09C1306.29 1116.58 1304 1114.44 1303.47 1112.33C1300.15 1099.23 1296.84 1086.12 1293.53 1073.01C1293 1070.94 1294.34 1069.6 1296.53 1070.1C1304.9 1071.96 1313.27 1073.74 1321.66 1075.45C1323.81 1075.88 1326.13 1077.98 1326.71 1080.07C1330.48 1093.26 1334.25 1106.47 1338 1119.68ZM1254.91 1100.72C1255.35 1102.8 1253.82 1104.03 1251.51 1103.43C1242.76 1101.2 1234.02 1098.9 1225.29 1096.56C1222.98 1095.94 1220.81 1093.74 1220.45 1091.68C1218.22 1078.83 1215.99 1066 1213.75 1053.17C1213.41 1051.12 1214.89 1049.93 1217.09 1050.52C1225.43 1052.76 1233.76 1054.95 1242.1 1057.08C1244.28 1057.65 1246.44 1059.8 1246.87 1061.85C1249.55 1074.81 1252.23 1087.76 1254.91 1100.72ZM1133.07 769.901C1133.32 771.945 1132.25 773.231 1130.68 772.762C1124.71 771.009 1118.74 769.231 1112.78 767.424C1111.21 766.941 1109.76 764.919 1109.59 762.903C1108.44 750.381 1107.28 737.859 1106.13 725.332C1105.94 723.317 1106.99 722.066 1108.45 722.501C1114.02 724.19 1119.57 725.845 1125.14 727.48C1126.6 727.915 1128 729.904 1128.26 731.933C1129.86 744.593 1131.46 757.252 1133.07 769.901ZM1172.05 1078.03C1172.32 1080.06 1170.64 1081.18 1168.35 1080.5C1159.62 1077.94 1150.9 1075.34 1142.18 1072.7C1139.89 1072 1137.87 1069.78 1137.67 1067.77C1136.51 1055.25 1135.36 1042.72 1134.21 1030.2C1134.02 1028.21 1135.67 1027.13 1137.85 1027.78C1146.17 1030.29 1154.49 1032.77 1162.81 1035.22C1165 1035.86 1166.98 1038.05 1167.25 1040.05C1168.85 1052.72 1170.45 1065.37 1172.05 1078.03ZM1089.33 1052.75C1089.42 1054.74 1087.65 1055.77 1085.35 1055.04C1076.63 1052.28 1067.91 1049.48 1059.19 1046.68C1056.93 1045.94 1055.06 1043.73 1055.03 1041.77C1054.96 1029.59 1054.88 1017.4 1054.82 1005.22C1054.79 1003.29 1056.57 1002.26 1058.73 1002.96C1067.04 1005.64 1075.35 1008.29 1083.67 1010.94C1085.85 1011.63 1087.69 1013.81 1087.76 1015.77C1088.28 1028.09 1088.81 1040.42 1089.33 1052.75ZM1006.74 1026.07C1006.65 1028 1004.71 1028.96 1002.44 1028.22C993.732 1025.37 985.009 1022.52 976.297 1019.67C974 1018.92 972.289 1016.76 972.448 1014.87C973.454 1003.03 974.455 991.193 975.456 979.358C975.615 977.476 977.497 976.505 979.683 977.211C987.995 979.928 996.303 982.65 1004.63 985.367C1006.77 986.074 1008.48 988.235 1008.39 990.136C1007.84 1002.12 1007.3 1014.09 1006.74 1026.07ZM924.163 999.155C923.896 1001.03 921.801 1001.95 919.514 1001.21C910.814 998.402 902.099 995.616 893.387 992.854C891.095 992.119 889.488 990.025 889.827 988.175C891.899 976.691 893.981 965.198 896.058 953.718C896.395 951.888 898.432 950.955 900.634 951.637C908.94 954.276 917.235 956.944 925.544 959.617C927.725 960.319 929.302 962.423 929.047 964.267C927.419 975.893 925.796 987.524 924.163 999.155ZM841.518 973.162C841.092 974.983 838.851 975.889 836.562 975.198C827.836 972.554 819.118 969.948 810.389 967.392C808.104 966.716 806.626 964.703 807.138 962.91C810.292 951.748 813.451 940.59 816.594 929.438C817.101 927.66 819.314 926.725 821.488 927.368C829.802 929.811 838.124 932.294 846.449 934.81C848.637 935.468 850.066 937.49 849.626 939.297C846.932 950.577 844.227 961.867 841.518 973.162ZM809.017 894.101C806.626 901.988 796.98 906.161 787.432 903.525C686.3 875.5 584.686 854.788 481.904 852.13C472.197 851.874 469.001 845.922 474.771 838.607C517.512 784.146 560.249 729.671 602.99 675.21C608.755 667.9 619.278 661.975 626.442 662.163C703.036 664.146 778.756 679.579 854.123 700.451C861.171 702.404 864.982 710.446 862.616 718.318C844.75 776.915 826.878 835.518 809.017 894.101ZM758.711 949.251C758.097 951.02 755.762 951.961 753.46 951.339C744.708 948.983 735.953 946.686 727.196 944.447C724.922 943.863 723.606 941.957 724.277 940.216C728.519 929.351 732.756 918.481 736.983 907.63C737.663 905.909 740.015 904.933 742.168 905.484C750.518 907.619 758.872 909.808 767.213 912.056C769.398 912.65 770.665 914.567 770.067 916.302C766.28 927.29 762.493 938.278 758.711 949.251ZM675.719 928.6C674.941 930.322 672.437 931.304 670.145 930.804C661.362 928.863 652.585 926.991 643.795 925.206C641.487 924.731 640.322 922.969 641.188 921.256C646.509 910.639 651.826 900.027 657.133 889.414C657.983 887.726 660.435 886.691 662.646 887.138C671.023 888.843 679.398 890.627 687.775 892.474C689.941 892.956 691.094 894.766 690.327 896.468C685.456 907.174 680.585 917.889 675.719 928.6ZM592.45 912.367C591.478 914.061 588.829 915.128 586.503 914.755C577.702 913.357 568.888 912.037 560.08 910.824C557.762 910.5 556.698 908.874 557.739 907.198C564.138 896.776 570.537 886.343 576.941 875.906C577.961 874.25 580.608 873.12 582.814 873.43C591.229 874.583 599.625 875.83 608.013 877.178C610.223 877.523 611.235 879.208 610.308 880.868C604.35 891.369 598.398 901.875 592.45 912.367ZM508.8 901.725C507.672 903.392 504.852 904.587 502.524 904.385C493.682 903.637 484.836 902.996 475.97 902.478C473.624 902.349 472.711 900.888 473.927 899.22C481.417 888.894 488.907 878.568 496.412 868.238C497.592 866.604 500.4 865.346 502.624 865.471C511.065 865.969 519.506 866.579 527.939 867.293C530.166 867.471 531.047 869.001 529.93 870.648C522.888 881.009 515.851 891.364 508.8 901.725ZM622.767 646.872C621.459 648.526 619.107 649.878 617.498 649.889C611.412 649.905 605.317 650.014 599.213 650.215C597.617 650.28 597.45 648.967 598.827 647.313C607.422 636.996 616.021 626.673 624.61 616.361C625.988 614.697 628.331 613.316 629.8 613.262C635.492 613.075 641.171 612.965 646.852 612.948C648.333 612.948 648.49 614.28 647.171 615.944C639.047 626.247 630.907 636.555 622.767 646.872ZM424.696 897.833C423.382 899.492 420.444 900.84 418.092 900.848C409.195 900.877 400.282 901.033 391.354 901.346C389.044 901.417 388.25 900.14 389.637 898.476C398.231 888.159 406.821 877.846 415.42 867.524C416.772 865.884 419.743 864.458 421.946 864.378C430.452 864.099 438.944 863.947 447.441 863.913C449.666 863.905 450.392 865.276 449.114 866.9C440.97 877.213 432.835 887.525 424.696 897.833ZM112.248 935.734C102.184 940.923 101.646 938.74 111.047 930.485C180.846 869.18 250.645 807.884 320.459 746.573C329.869 738.338 343.556 728.293 350.984 724.469C430.376 683.549 508.267 665.552 585.204 662.442C592.401 662.156 593.446 668.007 587.539 675.313C543.321 729.788 499.108 784.259 454.886 838.739C448.979 846.055 436.294 852.114 426.555 852.508C323.321 856.673 218.781 880.837 112.248 935.734ZM340.096 901.859C338.611 903.534 335.484 905.074 333.147 905.322C324.189 906.255 315.215 907.335 306.229 908.585C303.869 908.902 303.234 907.819 304.802 906.138C314.501 895.717 324.204 885.301 333.902 874.88C335.45 873.229 338.532 871.601 340.778 871.281C349.341 870.103 357.903 869.066 366.449 868.176C368.668 867.949 369.285 869.135 367.815 870.776C358.579 881.134 349.338 891.496 340.096 901.859ZM254.91 914.971C253.257 916.667 249.944 918.453 247.572 918.97C238.553 920.929 229.522 923.059 220.479 925.361C218.103 925.975 217.567 925.077 219.313 923.365C230.125 912.728 240.941 902.086 251.754 891.439C253.469 889.757 256.737 887.874 259.014 887.29C267.632 885.09 276.244 883.066 284.849 881.199C287.108 880.708 287.596 881.699 285.954 883.376C275.606 893.911 265.258 904.436 254.91 914.971ZM169.055 938.326C167.21 940.078 163.749 942.149 161.35 942.964C152.255 946.077 143.152 949.366 134.032 952.86C131.619 953.772 131.236 953.102 133.165 951.325C145.091 940.32 157.033 929.311 168.964 918.311C170.853 916.563 174.289 914.385 176.588 913.508C185.286 910.179 193.962 907.041 202.636 904.084C204.906 903.3 205.265 904.097 203.456 905.815C191.99 916.654 180.52 927.497 169.055 938.326ZM82.4215 973.114C80.3878 974.937 76.8063 977.321 74.3839 978.478C65.1884 982.862 55.9943 987.451 46.7716 992.264C44.3848 993.509 44.1248 993.048 46.2286 991.185C59.2905 979.662 72.3623 968.138 85.4344 956.605C87.5072 954.782 91.1134 952.27 93.3907 951.076C102.169 946.496 110.954 942.116 119.711 937.942C122.009 936.84 122.213 937.458 120.215 939.246C107.608 950.535 95.0194 961.825 82.4215 973.114ZM403.551 676.037C405.66 674.17 408.601 672.021 410.129 671.225C416.006 668.163 421.873 665.234 427.724 662.441C429.254 661.718 428.872 662.586 426.843 664.403C414.26 675.688 401.657 686.982 389.059 698.271C387.025 700.094 384.062 702.189 382.402 702.982C376.112 705.984 369.822 709.118 363.52 712.404C361.877 713.265 362.251 712.47 364.35 710.613C377.417 699.084 390.484 687.556 403.551 676.037ZM459.515 650.377C461.429 648.604 464.214 646.701 465.753 646.11C471.567 643.879 477.366 641.785 483.17 639.799C484.701 639.281 484.456 640.27 482.616 642.007C471.146 652.851 459.681 663.68 448.211 674.524C446.362 676.261 443.524 678.14 441.888 678.694C435.673 680.816 429.438 683.07 423.202 685.456C421.568 686.093 421.782 685.163 423.705 683.4C435.642 672.386 447.573 661.386 459.515 650.377ZM514.964 632.38C516.714 630.663 519.354 628.967 520.86 628.585C526.629 627.112 532.389 625.752 538.133 624.508C539.647 624.186 539.544 625.281 537.882 626.977C527.539 637.507 517.181 648.042 506.838 658.572C505.156 660.268 502.484 661.931 500.861 662.284C494.692 663.619 488.514 665.077 482.33 666.652C480.7 667.068 480.801 666.012 482.537 664.3C493.354 653.659 504.156 643.022 514.964 632.38ZM569.997 621.284C571.56 619.618 574.017 618.089 575.526 617.884C581.253 617.09 586.981 616.389 592.694 615.805C594.167 615.644 594.205 616.875 592.725 618.535C583.484 628.898 574.242 639.261 565.001 649.623C563.506 651.289 560.998 652.774 559.397 652.946C553.271 653.583 547.131 654.327 540.987 655.169C539.36 655.395 539.349 654.213 540.902 652.537C550.605 642.121 560.303 631.71 569.997 621.284ZM678.869 616.834C680.07 615.171 682.252 613.9 683.745 613.992C689.387 614.323 695.031 614.726 700.677 615.203C702.152 615.34 702.456 616.783 701.323 618.445C694.281 628.806 687.24 639.166 680.198 649.527C679.065 651.189 676.84 652.437 675.246 652.311C669.201 651.789 663.143 651.355 657.091 650.999C655.501 650.908 655.168 649.485 656.384 647.817C663.874 637.491 671.369 627.17 678.869 616.834ZM732.822 621.97C733.853 620.284 735.89 619.107 737.367 619.307C742.987 620.082 748.589 620.921 754.208 621.818C755.685 622.048 756.106 623.612 755.158 625.301C749.21 635.793 743.253 646.294 737.311 656.79C736.343 658.49 734.287 659.648 732.689 659.395C726.681 658.433 720.646 657.535 714.619 656.706C713.019 656.492 712.578 654.938 713.604 653.267C720.008 642.83 726.412 632.402 732.822 621.97ZM786.538 631.015C787.389 629.307 789.263 628.175 790.737 628.473C796.337 629.615 801.935 630.805 807.525 632.05C808.978 632.377 809.557 634.023 808.764 635.75C803.898 646.46 799.037 657.165 794.171 667.876C793.393 669.598 791.461 670.711 789.906 670.37C783.903 669.037 777.894 667.757 771.882 666.537C770.291 666.22 769.727 664.57 770.588 662.862C775.905 652.25 781.212 641.637 786.538 631.015ZM840.03 643.218C840.706 641.473 842.462 640.371 843.893 640.748C849.477 642.178 855.063 643.642 860.644 645.131C862.109 645.531 862.811 647.263 862.182 649.038C858.405 660.016 854.614 670.999 850.837 681.977C850.223 683.746 848.472 684.843 846.891 684.414C840.91 682.797 834.927 681.23 828.927 679.706C827.374 679.306 826.648 677.56 827.335 675.804C831.566 664.939 835.798 654.084 840.03 643.218ZM893.36 657.831C893.873 656.038 895.467 654.943 896.94 655.373C902.5 657.013 908.064 658.668 913.618 660.352C915.086 660.787 915.931 662.625 915.491 664.432C912.782 675.727 910.088 687.007 907.378 698.302C906.943 700.113 905.3 701.219 903.731 700.741C897.772 698.933 891.802 697.146 885.826 695.402C884.251 694.949 883.392 693.096 883.904 691.303C887.053 680.146 890.212 668.988 893.36 657.831ZM946.585 674.095C946.924 672.255 948.391 671.132 949.848 671.606C955.404 673.364 960.958 675.141 966.507 676.933C967.969 677.402 968.944 679.292 968.692 681.161C967.065 692.787 965.431 704.418 963.808 716.049C963.547 717.927 962.05 719.031 960.477 718.529C954.522 716.614 948.563 714.704 942.607 712.809C941.039 712.311 940.021 710.407 940.365 708.552C942.431 697.073 944.513 685.579 946.585 674.095ZM999.778 691.274C999.943 689.367 1001.23 688.226 1002.7 688.705C1008.26 690.516 1013.81 692.337 1019.38 694.153C1020.81 694.623 1021.94 696.57 1021.85 698.486C1021.29 710.473 1020.74 722.454 1020.19 734.431C1020.1 736.362 1018.75 737.523 1017.2 737.01C1011.24 735.057 1005.27 733.113 999.312 731.154C997.749 730.642 996.616 728.68 996.781 726.773C997.776 714.943 998.777 703.108 999.778 691.274ZM1120.09 783.891C1127.13 786 1133.78 794.961 1134.92 803.932C1143.12 870.743 1151.35 937.543 1159.57 1004.33C1160.7 1013.31 1153.88 1018.34 1144.34 1015.48C1043.37 985.182 942.723 949.509 841.731 919.217C832.212 916.355 826.282 907.666 828.522 899.755C844.934 840.738 861.351 781.725 877.768 722.712C880.003 714.797 887.537 710.043 894.584 712.157C969.849 734.726 1044.83 761.312 1120.09 783.891ZM1052.94 708.599C1052.91 706.63 1054.1 705.451 1055.55 705.911C1061.11 707.708 1066.66 709.485 1072.23 711.247C1073.68 711.716 1074.92 713.677 1075.01 715.664C1075.53 727.997 1076.06 740.32 1076.59 752.643C1076.66 754.63 1075.47 755.853 1073.91 755.346C1067.94 753.451 1061.98 751.546 1056.02 749.621C1054.47 749.124 1053.17 747.119 1053.17 745.156C1053.09 732.965 1053.01 720.779 1052.94 708.599ZM1159.42 740.712C1159.05 738.655 1159.97 737.322 1161.42 737.713C1167.01 739.211 1172.57 740.685 1178.15 742.111C1179.62 742.467 1181.16 744.455 1181.6 746.536C1184.27 759.497 1186.96 772.444 1189.64 785.395C1190.07 787.486 1189.13 788.858 1187.56 788.459C1181.58 786.92 1175.6 785.357 1169.62 783.746C1168.04 783.327 1166.46 781.286 1166.11 779.223C1163.88 766.389 1161.65 753.551 1159.42 740.712ZM1212.86 754.015C1212.32 751.905 1213.08 750.481 1214.54 750.804C1220.14 752.043 1225.74 753.234 1231.34 754.37C1232.79 754.664 1234.49 756.615 1235.08 758.749C1238.85 771.939 1242.61 785.138 1246.38 798.343C1246.98 800.467 1246.19 801.945 1244.63 801.628C1238.62 800.402 1232.61 799.118 1226.62 797.79C1225.03 797.444 1223.34 795.434 1222.8 793.329C1219.49 780.218 1216.17 767.121 1212.86 754.015ZM1266.46 764.458C1265.75 762.326 1266.39 760.8 1267.85 761.03C1273.46 761.928 1279.08 762.771 1284.71 763.541C1286.18 763.742 1288 765.638 1288.78 767.79C1293.63 781.174 1298.47 794.554 1303.34 807.943C1304.12 810.089 1303.47 811.668 1301.9 811.459C1295.86 810.624 1289.83 809.726 1283.79 808.765C1282.24 808.516 1280.37 806.557 1279.66 804.41C1275.25 791.094 1270.86 777.774 1266.46 764.458ZM1320.3 771.319C1319.42 769.149 1319.93 767.518 1321.41 767.645C1327.04 768.112 1332.69 768.526 1338.33 768.861C1339.81 768.949 1341.81 770.751 1342.76 772.915C1348.7 786.411 1354.65 799.892 1360.59 813.383C1361.55 815.557 1361.03 817.257 1359.43 817.165C1353.36 816.809 1347.32 816.376 1341.26 815.854C1339.67 815.723 1337.66 813.838 1336.77 811.673C1331.28 798.217 1325.79 784.761 1320.3 771.319ZM1374.43 773.815C1373.37 771.643 1373.73 769.9 1375.22 769.89C1380.89 769.874 1386.57 769.779 1392.26 769.581C1393.74 769.533 1395.89 771.226 1397.01 773.403C1404.06 786.898 1411.1 800.397 1418.14 813.887C1419.28 816.059 1418.9 817.885 1417.27 817.94C1411.19 818.141 1405.1 818.255 1399.01 818.276C1397.41 818.282 1395.25 816.505 1394.18 814.328C1387.6 800.819 1381.01 787.32 1374.43 773.815ZM1428.9 771.219C1427.67 769.048 1427.89 767.194 1429.37 767.048C1435.09 766.445 1440.82 765.754 1446.54 764.96C1448.03 764.76 1450.31 766.315 1451.62 768.466C1459.77 781.862 1467.92 795.267 1476.07 808.663C1477.38 810.819 1477.13 812.765 1475.53 812.986C1469.38 813.838 1463.26 814.582 1457.12 815.213C1455.51 815.391 1453.2 813.748 1451.96 811.581C1444.28 798.122 1436.59 784.683 1428.9 771.219ZM1483.74 762.782C1482.31 760.642 1482.42 758.673 1483.91 758.341C1489.68 757.092 1495.44 755.731 1501.21 754.263C1502.71 753.877 1505.14 755.26 1506.64 757.38C1515.89 770.559 1525.16 783.725 1534.42 796.895C1535.91 799.019 1535.82 801.086 1534.18 801.498C1527.99 803.083 1521.81 804.536 1515.63 805.876C1514.02 806.234 1511.54 804.768 1510.13 802.628C1501.33 789.341 1492.54 776.059 1483.74 762.782ZM1539 747.742C1537.4 745.653 1537.37 743.558 1538.9 743.044C1544.7 741.058 1550.51 738.95 1556.32 736.739C1557.85 736.142 1560.44 737.313 1562.1 739.373C1572.5 752.18 1582.89 764.987 1593.26 777.8C1594.93 779.864 1594.95 782.067 1593.31 782.689C1587.08 785.07 1580.84 787.334 1574.63 789.461C1572.97 790.02 1570.36 788.766 1568.76 786.676C1558.84 773.698 1548.92 760.725 1539 747.742ZM1594.75 725.356C1592.97 723.332 1592.8 721.136 1594.34 720.403C1600.2 717.615 1606.06 714.685 1611.93 711.619C1613.46 710.817 1616.21 711.728 1618.07 713.717C1629.59 725.996 1641.11 738.299 1652.62 750.587C1654.47 752.562 1654.64 754.88 1652.97 755.756C1646.68 759.037 1640.39 762.171 1634.12 765.168C1632.46 765.951 1629.67 764.948 1627.88 762.929C1616.85 750.401 1605.8 737.884 1594.75 725.356ZM406.313 668.166C270.988 786.378 135.648 904.606 0.322859 1022.82C685.294 630.584 1291.59 1445.29 1976.56 1053.05C1856.89 930.932 1737.24 808.817 1617.56 686.702C1197.75 927.104 826.137 427.759 406.313 668.166Z" fill="url(#paint0_linear_108_108)"/>
</g>
</g>
<defs>
<linearGradient id="paint0_linear_108_108" x1="1003.5" y1="49.8129" x2="1976.56" y2="1053.05" gradientUnits="userSpaceOnUse">
<stop stop-color="#FF0000"/>
<stop offset="0.489" stop-color="#42FF00"/>
<stop offset="1" stop-color="#2400FF"/>
</linearGradient>
<clipPath id="clip0_108_108">
<rect width="1397.65" height="1469.61" fill="white" transform="translate(1054.91) rotate(45.8746)"/>
</clipPath>
</defs>
</svg>
