<svg width="62" height="90" viewBox="0 0 62 90" fill="none" xmlns="http://www.w3.org/2000/svg">
<path d="M50.0004 24.0001C56.3428 37.2572 57.3263 51.2054 46.355 58.8496C35.3837 66.4938 15.8424 59.2571 9.49996 45.9999C3.15756 32.7427 12.4159 18.4853 23.3871 10.8411C34.3584 3.19688 43.658 10.7429 50.0004 24.0001Z" fill="#EC0B0F"/>
<g filter="url(#filter0_d_298578_11)">
<path d="M24.4879 57.8277C27.113 65.8149 35.5252 80.8488 30.3474 80.8488C25.1697 80.8488 5 82.8504 5 72.6496C14.3751 50.1858 15.9359 35 21.1137 35C26.2914 35 20.3863 45.3478 24.4879 57.8277Z" fill="#EC0B0F"/>
<path d="M4.53857 72.457L4.5 72.5494V72.6496C4.5 75.4033 5.8778 77.3369 7.96519 78.6568C10.0269 79.9605 12.7939 80.6791 15.6646 81.0699C20.0922 81.6728 24.9292 81.5109 28.0675 81.4058C28.9933 81.3748 29.7714 81.3488 30.3474 81.3488C31.1338 81.3488 31.7486 81.0509 32.1167 80.4476C32.4577 79.8889 32.5374 79.1445 32.4843 78.3419C32.3774 76.7265 31.7037 74.5358 30.8119 72.1579C30.0204 70.0474 29.0384 67.7426 28.08 65.4931C27.9525 65.1938 27.8254 64.8955 27.6992 64.5987C26.6208 62.0626 25.6115 59.6449 24.963 57.6716C22.9558 51.5644 23.3825 45.9719 23.6986 41.8288L23.7029 41.7719L23.704 41.7575C23.8593 39.7219 23.9938 37.959 23.7383 36.7115C23.6074 36.0724 23.363 35.5031 22.9111 35.0971C22.4519 34.6845 21.8452 34.5 21.1137 34.5C19.5317 34.5 18.3344 35.6704 17.2965 37.4744C16.2473 39.2982 15.2601 41.9437 14.1567 45.2422C13.6744 46.6838 13.1682 48.2559 12.6229 49.949C10.6626 56.036 8.19877 63.6868 4.53857 72.457Z" stroke="#E1181C"/>
</g>
<defs>
<filter id="filter0_d_298578_11" x="0" y="34" width="36.9995" height="56.0073" filterUnits="userSpaceOnUse" color-interpolation-filters="sRGB">
<feFlood flood-opacity="0" result="BackgroundImageFix"/>
<feColorMatrix in="SourceAlpha" type="matrix" values="0 0 0 0 0 0 0 0 0 0 0 0 0 0 0 0 0 0 127 0" result="hardAlpha"/>
<feOffset dy="4"/>
<feGaussianBlur stdDeviation="2"/>
<feComposite in2="hardAlpha" operator="out"/>
<feColorMatrix type="matrix" values="0 0 0 0 0.372917 0 0 0 0 0.0683681 0 0 0 0 0.0683681 0 0 0 0.25 0"/>
<feBlend mode="normal" in2="BackgroundImageFix" result="effect1_dropShadow_298578_11"/>
<feBlend mode="normal" in="SourceGraphic" in2="effect1_dropShadow_298578_11" result="shape"/>
</filter>
</defs>
</svg>
