<?xml version="1.0" encoding="UTF-8"?>
<!DOCTYPE svg PUBLIC "-//W3C//DTD SVG 1.1//EN" "http://www.w3.org/Graphics/SVG/1.1/DTD/svg11.dtd">
<svg xmlns="http://www.w3.org/2000/svg" version="1.1" width="16px" height="17px" style="shape-rendering:geometricPrecision; text-rendering:geometricPrecision; image-rendering:optimizeQuality; fill-rule:evenodd; clip-rule:evenodd" xmlns:xlink="http://www.w3.org/1999/xlink">
<g><path style="opacity:0.877" fill="#90cd7a" d="M 4.5,0.5 C 7.22817,0.170572 9.5615,0.837238 11.5,2.5C 8.77183,2.82943 6.4385,2.16276 4.5,0.5 Z"/></g>
<g><path style="opacity:1" fill="#64a54c" d="M 0.5,2.5 C 0.841711,1.66175 1.50838,1.32842 2.5,1.5C 3.16667,2.16667 3.83333,2.83333 4.5,3.5C 4.5,3.83333 4.5,4.16667 4.5,4.5C 4.16667,4.5 3.83333,4.5 3.5,4.5C 2.5,3.83333 1.5,3.16667 0.5,2.5 Z"/></g>
<g><path style="opacity:0.976" fill="#84c26e" d="M 4.5,0.5 C 6.4385,2.16276 8.77183,2.82943 11.5,2.5C 12.1667,2.5 12.5,2.83333 12.5,3.5C 9.83333,3.5 7.16667,3.5 4.5,3.5C 3.83333,2.83333 3.16667,2.16667 2.5,1.5C 3.16667,1.16667 3.83333,0.833333 4.5,0.5 Z"/></g>
<g><path style="opacity:0.486" fill="#3e5924" d="M 0.5,2.5 C 1.5,3.16667 2.5,3.83333 3.5,4.5C 3.83333,5.16667 4.16667,5.83333 4.5,6.5C 3.83333,6.5 3.16667,6.5 2.5,6.5C 2.5,5.83333 2.16667,5.5 1.5,5.5C 0.890217,4.60895 0.556884,3.60895 0.5,2.5 Z"/></g>
<g><path style="opacity:0.979" fill="#77af62" d="M 4.5,4.5 C 4.5,4.16667 4.5,3.83333 4.5,3.5C 7.16667,3.5 9.83333,3.5 12.5,3.5C 13.5862,3.61998 14.2528,4.28665 14.5,5.5C 14.2528,6.71335 13.5862,7.38002 12.5,7.5C 12.1667,7.5 11.8333,7.5 11.5,7.5C 11.9175,6.77842 12.5842,6.27842 13.5,6C 11.8659,5.50649 10.1992,5.33982 8.5,5.5C 7.04125,5.56745 5.70792,5.23411 4.5,4.5 Z"/></g>
<g><path style="opacity:1" fill="#468231" d="M 3.5,4.5 C 3.83333,4.5 4.16667,4.5 4.5,4.5C 5.70792,5.23411 7.04125,5.56745 8.5,5.5C 7.44886,6.22235 6.78219,7.22235 6.5,8.5C 5.5,8.16667 4.83333,7.5 4.5,6.5C 4.16667,5.83333 3.83333,5.16667 3.5,4.5 Z"/></g>
<g><path style="opacity:1" fill="#b6b9ac" d="M 8.5,5.5 C 10.1992,5.33982 11.8659,5.50649 13.5,6C 12.5842,6.27842 11.9175,6.77842 11.5,7.5C 10.1667,7.83333 8.83333,8.16667 7.5,8.5C 7.16667,8.5 6.83333,8.5 6.5,8.5C 6.78219,7.22235 7.44886,6.22235 8.5,5.5 Z"/></g>
<g><path style="opacity:0.984" fill="#333c6e" d="M 1.5,5.5 C 2.16667,5.5 2.5,5.83333 2.5,6.5C 2.5,7.5 2.5,8.5 2.5,9.5C 2.5,10.1667 2.5,10.8333 2.5,11.5C 0.538935,9.67997 0.205602,7.67997 1.5,5.5 Z"/></g>
<g><path style="opacity:1" fill="#b02614" d="M 2.5,6.5 C 3.16667,6.5 3.83333,6.5 4.5,6.5C 4.83333,7.5 5.5,8.16667 6.5,8.5C 6.83333,8.5 7.16667,8.5 7.5,8.5C 7.5,8.83333 7.5,9.16667 7.5,9.5C 5.83333,9.5 4.16667,9.5 2.5,9.5C 2.5,8.5 2.5,7.5 2.5,6.5 Z"/></g>
<g><path style="opacity:0.937" fill="#c5372a" d="M 11.5,7.5 C 11.8333,7.5 12.1667,7.5 12.5,7.5C 12.8333,8.16667 13.1667,8.83333 13.5,9.5C 11.5,9.5 9.5,9.5 7.5,9.5C 7.5,9.16667 7.5,8.83333 7.5,8.5C 8.83333,8.16667 10.1667,7.83333 11.5,7.5 Z"/></g>
<g><path style="opacity:1" fill="#b3817f" d="M 2.5,9.5 C 4.16667,9.5 5.83333,9.5 7.5,9.5C 9.5,9.5 11.5,9.5 13.5,9.5C 13.5,9.83333 13.5,10.1667 13.5,10.5C 12.2209,11.968 10.5542,12.6347 8.5,12.5C 6.73535,11.5386 4.73535,11.2053 2.5,11.5C 2.5,10.8333 2.5,10.1667 2.5,9.5 Z"/></g>
<g><path style="opacity:0.937" fill="#9193ac" d="M 13.5,10.5 C 13.9258,11.5279 13.9258,12.8612 13.5,14.5C 11.5,14.5 9.5,14.5 7.5,14.5C 6.32496,14.719 5.32496,14.3857 4.5,13.5C 5.68884,12.5713 7.02218,12.238 8.5,12.5C 10.5542,12.6347 12.2209,11.968 13.5,10.5 Z"/></g>
<g><path style="opacity:0.286" fill="#3f3668" d="M 2.5,11.5 C 4.73535,11.2053 6.73535,11.5386 8.5,12.5C 7.02218,12.238 5.68884,12.5713 4.5,13.5C 5.32496,14.3857 6.32496,14.719 7.5,14.5C 4.66076,15.9063 2.99409,14.9063 2.5,11.5 Z"/></g>
</svg>
